<?xml version="1.0" standalone="no"?><!DOCTYPE svg PUBLIC "-//W3C//DTD SVG 1.1//EN" "http://www.w3.org/Graphics/SVG/1.1/DTD/svg11.dtd"><svg t="1713246603026" class="icon" viewBox="0 0 1024 1024" version="1.1" xmlns="http://www.w3.org/2000/svg" p-id="20308" xmlns:xlink="http://www.w3.org/1999/xlink" width="200" height="200"><path d="M0 0h1024v1024H0V0z" fill="#202425" opacity=".01" p-id="20309"></path><path d="M580.266667 512l136.533333 170.666667-102.4 102.4-102.4-136.533334-102.4 136.533334-102.4-102.4 136.533333-170.666667h136.533334z" fill="#FFAA44" p-id="20310"></path><path d="M785.066667 83.524267a17.066667 17.066667 0 0 0-30.481067-10.581334l-226.0992 288.0512a17.066667 17.066667 0 0 1-26.7264 0.136534L269.312 71.918933A17.066667 17.066667 0 0 0 238.933333 82.602667v266.922666a68.266667 68.266667 0 0 0 17.237334 45.329067l230.331733 259.106133a34.133333 34.133333 0 0 0 50.9952 0l230.331733-259.072a68.266667 68.266667 0 0 0 17.237334-45.397333V83.5584zM477.866667 477.866667a34.133333 34.133333 0 1 1 68.266666 0 34.133333 34.133333 0 0 1-68.266666 0z m-204.8 170.666666a170.666667 170.666667 0 1 1 0 341.333334 170.666667 170.666667 0 0 1 0-341.333334z m0 102.4a68.266667 68.266667 0 1 0 0 136.533334 68.266667 68.266667 0 0 0 0-136.533334z m477.866666-102.4a170.666667 170.666667 0 1 1 0 341.333334 170.666667 170.666667 0 0 1 0-341.333334z m0 102.4a68.266667 68.266667 0 1 0 0 136.533334 68.266667 68.266667 0 0 0 0-136.533334z" fill="#11AA66" p-id="20311"></path></svg>