<?xml version="1.0" standalone="no"?><!DOCTYPE svg PUBLIC "-//W3C//DTD SVG 1.1//EN" "http://www.w3.org/Graphics/SVG/1.1/DTD/svg11.dtd"><svg t="1713246861294" class="icon" viewBox="0 0 1108 1024" version="1.1" xmlns="http://www.w3.org/2000/svg" p-id="22738" xmlns:xlink="http://www.w3.org/1999/xlink" width="216.40625" height="200"><path d="M1089.756994 823.377487l-531.727021-312.022161 531.727021-314.600856c18.308738-10.830521 24.497608-34.55452 13.667087-52.863259s-34.55452-24.497608-53.121129-13.667086L481.700585 466.743893l-233.887685-137.186603a174.500327 174.500327 0 0 0 95.669604-155.75321C343.482504 78.134475 266.379507 0 171.741381 0S0.000258 78.134475 0.000258 173.80408a174.319819 174.319819 0 0 0 108.563082 161.68421c2.578696 2.578696 5.157391 5.157391 8.509696 6.962478l288.556031 169.162428-286.750945 169.678166c-2.836565 1.547217-5.157391 3.610174-7.478217 5.931A173.80408 173.80408 0 0 0 0.000258 849.680181c0 95.927474 77.102997 173.80408 171.741123 173.80408s171.741123-78.134475 171.741123-173.80408c0-68.077562-38.680433-126.871821-95.153865-155.495341l233.371946-138.218081L1050.302952 889.649962a38.757794 38.757794 0 0 0 53.121129-13.667086c10.830521-18.308738 4.641652-42.032737-13.924956-52.863259zM171.741381 77.360866c52.08965 0 94.380257 43.322085 94.380257 96.443214s-42.290607 96.443213-94.380257 96.443213S77.361124 226.925208 77.361124 173.80408 119.651731 77.360866 171.741381 77.360866z m0 869.278268C119.651731 946.639134 77.361124 903.317049 77.361124 850.19592s42.290607-96.443213 94.380257-96.443213 94.380257 43.322085 94.380257 96.443213-42.290607 96.443213-94.380257 96.443214z" fill="#66CC00" p-id="22739"></path></svg>